<?xml version="1.0" encoding="UTF-8" standalone="no"?>
<!-- Created with Inkscape (http://www.inkscape.org/) -->

<svg
   width="121.707mm"
   height="101.36462mm"
   viewBox="0 0 121.707 101.36462"
   version="1.1"
   id="svg1"
   inkscape:version="1.4.2 (ebf0e94, 2025-05-08)"
   sodipodi:docname="logo.svg"
   inkscape:export-filename="logo.png"
   inkscape:export-xdpi="324.53"
   inkscape:export-ydpi="324.53"
   xmlns:inkscape="http://www.inkscape.org/namespaces/inkscape"
   xmlns:sodipodi="http://sodipodi.sourceforge.net/DTD/sodipodi-0.dtd"
   xmlns="http://www.w3.org/2000/svg"
   xmlns:svg="http://www.w3.org/2000/svg">
  <sodipodi:namedview
     id="namedview1"
     pagecolor="#ffffff"
     bordercolor="#666666"
     borderopacity="1.0"
     inkscape:showpageshadow="2"
     inkscape:pageopacity="0.0"
     inkscape:pagecheckerboard="0"
     inkscape:deskcolor="#d1d1d1"
     inkscape:document-units="mm"
     inkscape:zoom="0.97548401"
     inkscape:cx="229.6296"
     inkscape:cy="232.19243"
     inkscape:window-width="2560"
     inkscape:window-height="1334"
     inkscape:window-x="-32000"
     inkscape:window-y="-32000"
     inkscape:window-maximized="0"
     inkscape:current-layer="g2" />
  <defs
     id="defs1" />
  <g
     inkscape:label="letters"
     inkscape:groupmode="layer"
     id="layer1"
     style="display:none"
     transform="translate(-44.267042,-87.163913)">
    <g
       id="g1">
      <path
         d="m 50.029012,156.78825 0.58803,-0.41188 v -11.75896 c 0,-7.10979 0.0977,-11.75895 0.24715,-11.75895 0.13593,0 3.76248,5.21589 8.05899,11.59088 4.29651,6.37498 8.067325,11.82209 8.379586,12.10469 0.489498,0.44298 0.967983,0.5138 3.471714,0.5138 2.569242,0 2.947255,-0.0592 3.279513,-0.51359 0.31496,-0.43073 0.375547,-3.21118 0.375547,-17.23475 0,-19.76173 0.324681,-17.97263 -3.260524,-17.96668 -3.658221,0.006 -3.354059,-1.15416 -3.354059,12.79397 0,10.26779 -0.04921,11.73964 -0.381249,11.40223 -0.209687,-0.21309 -3.900252,-5.62124 -8.201258,-12.01812 -4.30101,-6.39688 -8.02874,-11.74903 -8.28386,-11.89368 -0.25511,-0.14464 -1.69382,-0.26865 -3.19714,-0.27556 -2.40878,-0.0111 -2.7779,0.0484 -3.10886,0.50102 -0.31502,0.43082 -0.37555,3.22626 -0.37555,17.34579 0,17.44691 -10e-4,17.42944 1.05834,17.80805 0.9295,0.33219 4.12485,0.17712 4.70363,-0.22826 z m 66.561168,-0.0835 c 0.39494,-0.32797 0.43689,-1.51925 0.43323,-12.30313 -0.002,-6.567 -0.10388,-12.09744 -0.22588,-12.28986 -0.59915,-0.94498 -5.36328,-0.96671 -5.86633,-0.0268 -0.15115,0.28243 -0.25374,5.2888 -0.25374,12.38276 v 11.90865 l 0.59531,0.42854 c 0.7502,0.54003 4.63458,0.46683 5.31741,-0.1002 z m 24.49973,0.087 c 0.40071,-0.40114 0.40987,-4.27474 0.0112,-4.75505 -0.26916,-0.32432 -1.28621,-0.3928 -5.83423,-0.3928 -3.41553,0 -5.57085,-0.10131 -5.67305,-0.26667 -0.0907,-0.14667 2.51406,-3.68465 5.78823,-7.86218 5.38506,-6.87082 5.96951,-7.71527 6.12568,-8.85079 0.21811,-1.5858 -0.041,-2.79324 -0.67194,-3.13089 -0.76888,-0.41149 -17.6876,-0.33917 -18.51672,0.0791 -0.60889,0.30721 -0.66763,0.49812 -0.73918,2.40243 -0.0487,1.29734 0.0373,2.20733 0.23083,2.44049 0.2465,0.29701 1.38985,0.3718 5.68451,0.3718 3.00607,0 5.44259,0.10783 5.52713,0.24462 0.0831,0.13454 -1.59965,2.48602 -3.73955,5.22552 -2.1399,2.73949 -4.76075,6.10216 -5.82411,7.4726 l -1.93338,2.4917 v 2.19151 c 0,1.80595 0.0815,2.2399 0.46302,2.46661 0.63211,0.37557 18.71956,0.25431 19.10152,-0.12805 z m -25.65767,-29.35326 c 1.68035,-0.86894 2.41381,-2.84183 1.71023,-4.60024 -1.17947,-2.94778 -5.0654,-3.18312 -6.65909,-0.40329 -0.72249,1.2602 -0.74987,2.07932 -0.10976,3.28387 0.99848,1.87897 3.26233,2.64856 5.05862,1.71966 z"
         style="fill:#006680;stroke-width:0.264583"
         id="path1"
         sodipodi:nodetypes="scssssssscsssscssssccssscscccsscsssccsscsscscccsssss" />
    </g>
  </g>
  <g
     id="g2"
     transform="translate(-43.995809,-87.163913)"
     style="display:inline"
     inkscape:label="moon">
    <path
       d="m 119.07092,188.24126 c 8.9322,-1.23865 16.16805,-5.10868 22.22267,-11.88558 2.7619,-3.09139 6.452,-9.23756 6.30637,-10.50381 -0.12034,-1.04638 -0.7869,-0.82083 -2.94011,0.99491 -1.09368,0.92226 -2.75645,2.17889 -3.69505,2.79251 -7.55765,4.9409 -17.04351,6.21941 -25.62231,3.45338 -11.74082,-3.78554 -19.56283,-13.17733 -21.14022,-25.38279 -0.384985,-2.97892 -0.389617,-4.93482 -0.01832,-7.73172 0.798585,-6.01548 3.019793,-11.0076 6.98212,-15.69217 1.15396,-1.3643 1.29175,-1.72331 0.81404,-2.12095 -0.37438,-0.31163 -2.067403,0.38325 -5.047203,2.07154 -8.880117,5.03127 -15.048784,13.34549 -17.019564,22.93921 -2.748738,13.38076 3.301917,27.71306 14.998146,35.52639 4.450693,2.97316 10.475081,5.1621 15.736301,5.71774 1.92184,0.20296 6.3482,0.10907 8.42313,-0.17866 z"
       style="display:inline;fill:#006680;stroke-width:0.204669"
       id="path1-14"
       sodipodi:nodetypes="sssssssssssssss" />
  </g>
  <path
     d="m 108.68532,0.33637573 c -0.24936,0.42355 -0.21848,2.79003997 0.0401,3.06753997 0.15419,0.16552 1.25395,0.23298 3.79801,0.23298 2.93092,0 3.58099,0.0488 3.58099,0.26898 0,0.14793 -1.51746,2.30492 -3.37212,4.79329 -1.85467,2.4883703 -3.52733,4.8067113 -3.71704,5.1518613 -0.25708,0.46774 -0.33101,0.91573 -0.29025,1.75921 l 0.0547,1.13166 6.05874,0.0532 c 5.99644,0.0527 6.06199,0.0489 6.37524,-0.36127 0.21131,-0.27674 0.3165,-0.74989 0.3165,-1.42369 0,-1.68834 0.0444,-1.66848 -3.87898,-1.73374 -2.28628,-0.038 -3.44629,-0.12795 -3.49058,-0.27058 -0.0365,-0.1175 1.59251,-2.428861 3.61999,-5.1363613 2.02748,-2.70751 3.74013,-5.13876 3.80591,-5.40279 0.22142,-0.88889 0.13212,-1.73385997 -0.2236,-2.11571997 -0.33108,-0.35542 -0.6454,-0.37203 -6.42708,-0.33976 -5.18311,0.0289 -6.10425,0.0769 -6.25044,0.32516 z M 92.628998,21.537347 c -0.13308,0.14286 -0.21703,0.84131 -0.21703,1.80558 0,0.96428 0.084,1.66272 0.21703,1.80558 0.15612,0.1676 1.37578,0.23298 4.34627,0.23298 3.434252,0 4.146122,0.0472 4.229552,0.28062 0.0622,0.17405 -1.587672,2.55184 -4.344532,6.26127 l -4.44484,5.98066 -0.002,1.36875 c -0.001,0.80814 0.0872,1.46416 0.21529,1.60172 0.2846,0.30551 14.096532,0.33573 14.625212,0.032 0.30255,-0.17382 0.34983,-0.41786 0.34983,-1.80558 0,-0.98916 -0.0832,-1.69396 -0.21703,-1.83757 -0.15639,-0.16788 -1.39462,-0.23298 -4.43102,-0.23298 -0.84639,0 -1.52355,-7.3e-4 -2.06516,-0.006 -1.983542,-0.0178 -2.148832,-0.087 -2.148832,-0.34556 0,-0.10743 0.61606,-1.03454 1.581842,-2.40111 0.77172,-1.092 1.76675,-2.4646 2.84918,-3.92386 3.05048,-4.11241 4.44088,-6.13515 4.46267,-6.49227 0.0582,-0.95395 -0.0629,-2.06945 -0.25122,-2.31463 -0.26408,-0.34374 -14.435622,-0.35306 -14.755472,-0.01 z"
     style="display:none;fill:#006680;stroke-width:0.187385"
     id="path1-1"
     sodipodi:nodetypes="cssssssccsssssssscccssssscccsssscssssccc" />
</svg>
